<?xml version="1.0" encoding="UTF-8" standalone="no"?>
<!DOCTYPE svg PUBLIC "-//W3C//DTD SVG 1.1//EN"
 "http://www.w3.org/Graphics/SVG/1.1/DTD/svg11.dtd">
<!-- Generated by graphviz version 2.40.1 (20161225.0304)
 -->
<!-- Title: G Pages: 1 -->
<svg width="148pt" height="311pt"
 viewBox="0.00 0.00 148.42 311.00" xmlns="http://www.w3.org/2000/svg" xmlns:xlink="http://www.w3.org/1999/xlink">
<g id="graph0" class="graph" transform="scale(1 1) rotate(0) translate(4 307)">
<title>G</title>
<polygon fill="#ffffff" stroke="transparent" points="-4,4 -4,-307 144.415,-307 144.415,4 -4,4"/>
<g id="clust1" class="cluster">
<title>cluster_Global</title>
<path fill="none" stroke="#c0c0c0" d="M20,-8C20,-8 120.415,-8 120.415,-8 126.415,-8 132.415,-14 132.415,-20 132.415,-20 132.415,-283 132.415,-283 132.415,-289 126.415,-295 120.415,-295 120.415,-295 20,-295 20,-295 14,-295 8,-289 8,-283 8,-283 8,-20 8,-20 8,-14 14,-8 20,-8"/>
<text text-anchor="middle" x="70.2075" y="-282.2" font-family="Times,serif" font-size="11.00" fill="#c0c0c0">Global</text>
</g>
<!-- \\admin -->
<g id="node1" class="node">
<title>\\admin</title>
<polygon fill="none" stroke="#000000" points="97.2075,-268 43.2075,-268 43.2075,-232 97.2075,-232 97.2075,-268"/>
<text text-anchor="middle" x="70.2075" y="-246.7" font-family="Courier,monospace" font-size="11.00" fill="#000000">admin</text>
</g>
<!-- \\functionsAdmin -->
<g id="node2" class="node">
<title>\\functionsAdmin</title>
<polygon fill="none" stroke="#000000" points="124.6234,-214 15.7917,-214 15.7917,-178 124.6234,-178 124.6234,-214"/>
<text text-anchor="middle" x="70.2075" y="-192.7" font-family="Courier,monospace" font-size="11.00" fill="#000000">functionsAdmin</text>
</g>
<!-- \\database -->
<g id="node3" class="node">
<title>\\database</title>
<polygon fill="none" stroke="#000000" points="104.5164,-160 35.8987,-160 35.8987,-124 104.5164,-124 104.5164,-160"/>
<text text-anchor="middle" x="70.2075" y="-138.7" font-family="Courier,monospace" font-size="11.00" fill="#000000">database</text>
</g>
<!-- \\users -->
<g id="node4" class="node">
<title>\\users</title>
<polygon fill="none" stroke="#000000" points="97.2075,-106 43.2075,-106 43.2075,-70 97.2075,-70 97.2075,-106"/>
<text text-anchor="middle" x="70.2075" y="-84.7" font-family="Courier,monospace" font-size="11.00" fill="#000000">users</text>
</g>
<!-- \\TestSuiteUsers -->
<g id="node5" class="node">
<title>\\TestSuiteUsers</title>
<polygon fill="none" stroke="#000000" points="124.6234,-52 15.7917,-52 15.7917,-16 124.6234,-16 124.6234,-52"/>
<text text-anchor="middle" x="70.2075" y="-30.7" font-family="Courier,monospace" font-size="11.00" fill="#000000">TestSuiteUsers</text>
</g>
</g>
</svg>
